<svg width="248" height="36" viewBox="0 0 248 36" fill="none" xmlns="http://www.w3.org/2000/svg">
<g clip-path="url(#clip0)">
<path d="M0 0V33.4071H34.2238V0H0Z" fill="#00569D"/>
<path d="M165.714 8.27323H164.01V3.19806H161.539V8.27323H159.834V1.85652H165.714V8.27323Z" fill="#0D0802"/>
<path d="M172.836 5.30177C172.836 5.39704 172.836 5.49232 172.823 5.58759H168.415C168.405 5.97718 168.489 6.36369 168.661 6.71541C168.78 6.8966 168.946 7.04374 169.143 7.14188C169.339 7.24001 169.559 7.28565 169.779 7.27416C170.057 7.29809 170.336 7.23184 170.571 7.08567C170.807 6.93949 170.986 6.72156 171.082 6.46564H172.763C172.589 7.08313 172.196 7.62046 171.655 7.98227C171.086 8.36339 170.408 8.56062 169.718 8.54618C169.305 8.56788 168.892 8.49966 168.51 8.34647C168.127 8.19327 167.784 7.95893 167.505 7.6604C166.978 7.0716 166.714 6.26136 166.714 5.22967C166.714 4.15336 166.986 3.30449 167.532 2.68308C167.806 2.37275 168.149 2.12734 168.535 1.96541C168.92 1.80349 169.339 1.72927 169.758 1.74838C170.378 1.73551 170.987 1.90801 171.504 2.24276C172.003 2.57238 172.381 3.04993 172.581 3.6049C172.761 4.15286 172.848 4.72624 172.836 5.30177ZM171.058 4.48295C171.049 4.15767 170.958 3.83958 170.795 3.55597C170.68 3.38668 170.523 3.2487 170.338 3.15501C170.153 3.06131 169.947 3.01499 169.74 3.02039C168.992 3.02039 168.562 3.50791 168.45 4.48295H171.058Z" fill="#0D0802"/>
<path d="M180.198 5.14985C180.229 6.0241 179.95 6.88191 179.407 7.578C179.182 7.8804 178.886 8.12614 178.544 8.29494C178.203 8.46374 177.825 8.55074 177.442 8.54875C177.067 8.56166 176.695 8.46995 176.372 8.28435C176.048 8.09874 175.785 7.82693 175.614 7.50075V10.8482H173.91V1.83592H175.614V2.80667C175.783 2.47837 176.045 2.20426 176.369 2.01673C176.693 1.82921 177.065 1.73609 177.442 1.74838C177.844 1.75087 178.24 1.84709 178.597 2.02904C178.95 2.19846 179.255 2.4495 179.486 2.76032C179.976 3.46338 180.226 4.29989 180.198 5.14985ZM178.494 5.17302C178.519 4.65176 178.381 4.13543 178.099 3.69244C177.988 3.52062 177.834 3.37901 177.652 3.28086C177.47 3.18271 177.266 3.13122 177.058 3.13122C176.85 3.13122 176.646 3.18271 176.464 3.28086C176.282 3.37901 176.128 3.52062 176.017 3.69244C175.735 4.12899 175.597 4.63945 175.622 5.155C175.596 5.66819 175.735 6.17641 176.017 6.60983C176.128 6.78053 176.282 6.9211 176.463 7.0185C176.645 7.1159 176.848 7.16697 177.055 7.16697C177.262 7.16697 177.466 7.1159 177.648 7.0185C177.829 6.9211 177.982 6.78053 178.093 6.60983C178.376 6.18689 178.517 5.68804 178.494 5.18332V5.17302Z" fill="#0D0802"/>
<path d="M187.041 5.30176C187.041 5.39703 187.041 5.49231 187.041 5.58758H182.636C182.625 5.97693 182.708 6.36337 182.879 6.7154C182.998 6.8968 183.165 7.04404 183.362 7.14217C183.559 7.24031 183.779 7.28584 184 7.27415C184.277 7.29793 184.555 7.23158 184.791 7.08539C185.026 6.9392 185.205 6.72135 185.3 6.46563H186.98C186.807 7.08351 186.415 7.6211 185.873 7.98226C185.304 8.36302 184.628 8.56024 183.939 8.54617C183.527 8.56616 183.116 8.49714 182.735 8.34401C182.354 8.19089 182.012 7.95746 181.734 7.66039C181.206 7.07159 180.942 6.26135 180.942 5.22966C180.942 4.15335 181.214 3.30448 181.757 2.68307C182.032 2.37289 182.375 2.12759 182.76 1.96567C183.146 1.80375 183.564 1.72945 183.984 1.74837C184.596 1.74069 185.196 1.91295 185.706 2.24275C186.207 2.57169 186.585 3.04938 186.785 3.60489C186.967 4.15257 187.054 4.72615 187.041 5.30176ZM185.263 4.48294C185.253 4.15768 185.163 3.83961 184.999 3.55596C184.884 3.38719 184.727 3.2496 184.542 3.15597C184.358 3.06234 184.152 3.0157 183.944 3.02038C183.199 3.02038 182.769 3.5079 182.654 4.48294H185.263Z" fill="#0D0802"/>
<path d="M195.467 9.75897H194.148V8.27323H189.038V9.75897H187.698V7.07332H188.453C188.738 7.07332 188.964 6.72313 189.136 6.0279C189.317 5.2517 189.406 4.45763 189.4 3.66155V1.8591H194.488V7.07332H195.467V9.75897ZM192.766 6.92655V3.19806H191.085V3.80574C191.085 5.19105 190.927 6.23218 190.61 6.92912L192.766 6.92655Z" fill="#0D0802"/>
<path d="M202.684 5.19619C202.684 6.22616 202.392 7.04155 201.808 7.64237C201.5 7.94772 201.129 8.18607 200.72 8.34182C200.311 8.49757 199.873 8.56721 199.434 8.54617C198.419 8.54617 197.628 8.24318 197.06 7.63722C196.492 7.03125 196.2 6.20213 196.184 5.14984C196.184 4.09756 196.472 3.26758 197.047 2.6599C197.353 2.35201 197.724 2.11164 198.133 1.95487C198.542 1.79811 198.982 1.72858 199.421 1.75095C200.453 1.75095 201.255 2.05393 201.827 2.6599C202.398 3.26586 202.684 4.11129 202.684 5.19619ZM200.98 5.17044C201.008 4.63508 200.861 4.10477 200.56 3.65639C200.433 3.48103 200.265 3.33801 200.069 3.2393C199.874 3.14059 199.657 3.08907 199.437 3.08907C199.216 3.08907 199 3.14059 198.804 3.2393C198.609 3.33801 198.44 3.48103 198.313 3.65639C198.01 4.09643 197.861 4.62033 197.888 5.14984C197.863 5.67675 198.012 6.19769 198.313 6.63557C198.438 6.81139 198.605 6.95501 198.8 7.05419C198.994 7.15337 199.211 7.20516 199.43 7.20516C199.649 7.20516 199.866 7.15337 200.06 7.05419C200.255 6.95501 200.422 6.81139 200.547 6.63557C200.851 6.20634 201.003 5.69181 200.98 5.17044Z" fill="#0D0802"/>
<path d="M209.5 6.43731C209.501 6.70441 209.44 6.96826 209.323 7.20979C209.216 7.44546 209.057 7.65484 208.856 7.82262C208.482 8.13161 207.93 8.28611 207.2 8.28611H203.926V1.85653H207.163C207.723 1.82059 208.277 1.98439 208.722 2.31744C209.033 2.55641 209.241 2.9005 209.305 3.28182C209.369 3.66315 209.284 4.05403 209.067 4.37738C208.924 4.62278 208.692 4.80661 208.416 4.89236C208.747 4.98847 209.03 5.20259 209.207 5.49232C209.393 5.77458 209.495 6.10185 209.5 6.43731ZM207.675 3.76197C207.685 3.67291 207.671 3.58284 207.634 3.50065C207.598 3.41846 207.54 3.347 207.466 3.29333C207.25 3.19384 207.011 3.15039 206.773 3.16716H205.63V4.32073H206.773C207.01 4.33774 207.248 4.29888 207.466 4.20743C207.541 4.1594 207.601 4.09151 207.638 4.01171C207.675 3.93191 207.687 3.84349 207.675 3.75682V3.76197ZM207.582 6.81068C207.663 6.74324 207.726 6.65762 207.766 6.56118C207.805 6.46475 207.82 6.36038 207.809 6.25707C207.825 6.16039 207.813 6.06143 207.775 5.97074C207.738 5.88005 207.676 5.80102 207.596 5.74208C207.359 5.64562 207.102 5.60504 206.846 5.62364H205.63V6.96517H206.846C207.103 6.98485 207.359 6.92925 207.582 6.80553V6.81068Z" fill="#0D0802"/>
<path d="M216.633 6.27766C216.628 6.57081 216.569 6.86061 216.456 7.13254C216.366 7.39545 216.205 7.62955 215.989 7.80974C215.615 8.11873 215.063 8.27323 214.333 8.27323H210.888V1.85652H212.592V4.00658H214.029C214.889 4.00658 215.538 4.21258 215.976 4.62456C216.198 4.84014 216.371 5.09858 216.484 5.38328C216.597 5.66798 216.648 5.97264 216.633 6.27766ZM214.942 6.13347C214.949 6.01613 214.927 5.89883 214.877 5.79195C214.827 5.68507 214.75 5.59189 214.655 5.52064C214.42 5.37174 214.143 5.2996 213.863 5.31464H212.597V6.96517H213.916C214.602 6.96517 214.942 6.6948 214.942 6.13347ZM218.899 8.27323H217.195V1.85652H218.899V8.27323Z" fill="#0D0802"/>
<path d="M226.422 5.30177C226.422 5.39704 226.422 5.49232 226.409 5.58759H222.001C221.99 5.97717 222.074 6.36369 222.246 6.7154C222.366 6.8966 222.532 7.04374 222.728 7.14187C222.925 7.24001 223.144 7.28565 223.365 7.27416C223.643 7.29809 223.921 7.23184 224.157 7.08566C224.392 6.93949 224.572 6.72156 224.668 6.46564H226.348C226.174 7.08313 225.782 7.62046 225.24 7.98227C224.671 8.36339 223.994 8.56062 223.304 8.54617C222.893 8.56633 222.482 8.49736 222.101 8.34422C221.72 8.19107 221.379 7.95755 221.101 7.6604C220.574 7.0716 220.31 6.26136 220.31 5.22967C220.31 4.15336 220.583 3.30449 221.128 2.68307C221.402 2.37275 221.745 2.12734 222.131 1.96541C222.516 1.80349 222.935 1.72927 223.354 1.74838C223.974 1.73551 224.584 1.90801 225.1 2.24276C225.596 2.574 225.969 3.05137 226.166 3.6049C226.347 4.15286 226.433 4.72624 226.422 5.30177ZM224.644 4.48295C224.634 4.15767 224.544 3.83958 224.38 3.55597C224.265 3.38668 224.108 3.2487 223.924 3.15501C223.739 3.06131 223.533 3.01499 223.325 3.02039C222.578 3.02039 222.148 3.50791 222.035 4.48295H224.644Z" fill="#0D0802"/>
<path d="M166.115 30.294C166.146 31.1691 165.867 32.0278 165.323 32.7247C165.098 33.0271 164.802 33.2727 164.46 33.4411C164.117 33.6095 163.739 33.6958 163.356 33.6929C162.981 33.7058 162.61 33.6144 162.287 33.4293C161.964 33.2441 161.701 32.973 161.53 32.6475V35.9949H159.826V26.9826H161.53V27.9328C161.699 27.6047 161.961 27.3307 162.284 27.1431C162.608 26.9556 162.98 26.8624 163.356 26.8745C163.759 26.8758 164.156 26.9711 164.514 27.1526C164.866 27.3235 165.17 27.5743 165.403 27.8838C165.897 28.5926 166.147 29.437 166.115 30.294ZM164.411 30.3197C164.436 29.7985 164.298 29.2821 164.015 28.8391C163.904 28.6673 163.751 28.5257 163.569 28.4276C163.387 28.3294 163.182 28.2779 162.974 28.2779C162.767 28.2779 162.562 28.3294 162.38 28.4276C162.198 28.5257 162.045 28.6673 161.934 28.8391C161.652 29.2749 161.514 29.7844 161.538 30.2991C161.513 30.8131 161.651 31.3222 161.934 31.7565C162.045 31.9267 162.199 32.0667 162.38 32.1636C162.562 32.2606 162.765 32.3115 162.972 32.3115C163.179 32.3115 163.382 32.2606 163.564 32.1636C163.745 32.0667 163.898 31.9267 164.01 31.7565C164.294 31.3304 164.435 30.8278 164.411 30.3197Z" fill="#0D0802"/>
<path d="M172.958 30.4382C172.958 30.5334 172.958 30.6287 172.958 30.724H168.537C168.526 31.1136 168.61 31.5001 168.782 31.8518C168.901 32.033 169.068 32.1801 169.264 32.2783C169.46 32.3764 169.68 32.4221 169.9 32.4106C170.178 32.4341 170.457 32.3676 170.692 32.2215C170.928 32.0754 171.107 31.8577 171.203 31.602H172.884C172.709 32.2185 172.317 32.7548 171.776 33.1161C171.208 33.4991 170.53 33.6973 169.84 33.6826C169.428 33.7027 169.018 33.6338 168.637 33.4806C168.256 33.3275 167.914 33.0939 167.637 32.7968C167.109 32.2063 166.846 31.396 166.846 30.3661C166.846 29.2898 167.118 28.44 167.663 27.8169C167.938 27.5073 168.281 27.2626 168.667 27.1012C169.053 26.9397 169.471 26.8657 169.89 26.8848C170.51 26.8719 171.119 27.0444 171.636 27.3792C172.139 27.7097 172.518 28.1916 172.715 28.7516C172.89 29.297 172.972 29.8668 172.958 30.4382ZM171.18 29.6116C171.17 29.2863 171.08 28.9681 170.916 28.6847C170.8 28.5162 170.643 28.379 170.459 28.2858C170.274 28.1926 170.068 28.1464 169.861 28.1516C169.115 28.1516 168.685 28.6383 168.571 29.6116H171.18Z" fill="#0D0802"/>
<path d="M183.39 33.4096H174.065V26.9929H175.77V32.0655H177.851V26.9929H179.555V32.0655H181.684V26.9929H183.39V33.4096Z" fill="#0D0802"/>
<path d="M190.51 30.4382C190.51 30.5334 190.51 30.6287 190.497 30.724H186.091C186.08 31.1133 186.163 31.4998 186.334 31.8518C186.454 32.033 186.621 32.1801 186.818 32.2782C187.015 32.3763 187.235 32.422 187.455 32.4106C187.733 32.434 188.011 32.3676 188.247 32.2215C188.482 32.0754 188.662 31.8577 188.758 31.602H190.436C190.263 32.2194 189.87 32.7562 189.328 33.1161C188.761 33.499 188.084 33.6973 187.395 33.6826C186.983 33.7026 186.572 33.6335 186.19 33.4804C185.809 33.3273 185.467 33.0939 185.189 32.7968C184.662 32.2063 184.398 31.396 184.398 30.3661C184.398 29.2897 184.67 28.44 185.213 27.8169C185.488 27.5073 185.832 27.2626 186.218 27.1011C186.604 26.9397 187.023 26.8657 187.442 26.8848C188.062 26.8719 188.672 27.0444 189.188 27.3792C189.69 27.7106 190.068 28.1923 190.265 28.7516C190.442 29.2966 190.525 29.8666 190.51 30.4382ZM188.732 29.6116C188.721 29.2865 188.631 28.9686 188.468 28.6846C188.352 28.5165 188.195 28.3796 188.01 28.2864C187.826 28.1933 187.621 28.1469 187.413 28.1516C186.666 28.1516 186.236 28.6383 186.123 29.6116H188.732Z" fill="#0D0802"/>
<path d="M197.498 33.4096H195.794V30.948H193.322V33.4096H191.618V26.9929H193.322V29.6116H195.794V26.9929H197.498V33.4096Z" fill="#0D0802"/>
<path d="M204.984 33.4096H203.28V29.3927L200.906 33.4096H198.959V26.9929H200.663V31.0072L203.037 26.9929H204.984V33.4096Z" fill="#0D0802"/>
<path d="M212.178 33.4096H210.473V30.948H209.946L208.205 33.4096H206.018L207.904 30.8192C207.444 30.7037 207.036 30.4397 206.749 30.0699C206.475 29.7136 206.33 29.2792 206.335 28.834C206.334 28.5669 206.395 28.303 206.511 28.0615C206.619 27.826 206.779 27.6173 206.981 27.4512C207.352 27.1423 207.903 26.9878 208.635 26.9878H212.178V33.4096ZM210.473 29.6425V28.2984H208.988C208.733 28.2788 208.478 28.3306 208.252 28.4477C208.171 28.512 208.108 28.5953 208.069 28.6899C208.03 28.7844 208.016 28.8872 208.028 28.9885C208.016 29.0855 208.029 29.1839 208.068 29.2742C208.106 29.3645 208.168 29.4435 208.247 29.5035C208.479 29.6084 208.734 29.6536 208.988 29.6348L210.473 29.6425Z" fill="#0D0802"/>
<path d="M165.614 20.8363H163.91V15.7611H162.29V16.4795C162.29 18.0554 162.085 19.1943 161.676 19.8964C161.266 20.5985 160.598 20.9487 159.673 20.947V19.3506C159.773 19.3511 159.872 19.3309 159.964 19.2913C160.056 19.2493 160.134 19.1834 160.19 19.1008C160.251 19.0142 160.304 18.9229 160.349 18.8278C160.401 18.7056 160.437 18.5776 160.457 18.4468C160.486 18.2897 160.51 18.1429 160.531 18.0064C160.554 17.8357 160.568 17.6637 160.573 17.4915C160.573 17.2777 160.573 17.0975 160.573 16.9456V14.4196H165.601L165.614 20.8363Z" fill="#0D0802"/>
<path d="M173.269 17.767C173.269 18.7969 172.977 19.6123 172.393 20.2132C172.085 20.5189 171.715 20.7575 171.305 20.9133C170.896 21.0691 170.458 21.1385 170.019 21.1169C169.006 21.1169 168.215 20.814 167.645 20.208C167.075 19.602 166.787 18.7721 166.78 17.718C166.78 16.664 167.068 15.8341 167.645 15.2281C168.222 14.6221 169.013 14.3192 170.019 14.3192C171.048 14.3192 171.849 14.6221 172.422 15.2281C172.996 15.8341 173.278 16.6804 173.269 17.767ZM171.565 17.7412C171.595 17.2041 171.448 16.6718 171.145 16.222C171.019 16.0467 170.85 15.9036 170.655 15.8049C170.46 15.7062 170.243 15.6546 170.023 15.6546C169.803 15.6546 169.586 15.7062 169.391 15.8049C169.196 15.9036 169.028 16.0467 168.901 16.222C168.599 16.6597 168.449 17.1806 168.473 17.7077C168.449 18.2349 168.599 18.7558 168.901 19.1935C169.024 19.372 169.19 19.5176 169.386 19.617C169.581 19.7164 169.799 19.7664 170.019 19.7625C170.238 19.7661 170.454 19.7165 170.649 19.618C170.843 19.5196 171.009 19.3754 171.132 19.1986C171.438 18.77 171.59 18.255 171.565 17.7335V17.7412Z" fill="#0D0802"/>
<path d="M178.748 15.7611H176.21V20.8363H174.506V14.4196H178.743L178.748 15.7611Z" fill="#0D0802"/>
<path d="M186.063 20.8363H184.359V16.8194L181.985 20.8363H180.038V14.4196H181.75V18.4365L184.124 14.4196H186.071L186.063 20.8363Z" fill="#0D0802"/>
<path d="M193.148 18.6141C193.101 19.3114 192.781 19.9642 192.254 20.4372C191.71 20.8975 191.008 21.1395 190.289 21.1144C189.313 21.1144 188.558 20.8208 188.017 20.2337C187.477 19.6467 187.208 18.8253 187.208 17.7644C187.208 16.7035 187.471 15.8229 188.023 15.2204C188.574 14.6178 189.342 14.3166 190.312 14.3166C191.037 14.2825 191.748 14.5191 192.301 14.9783C192.561 15.2143 192.77 15.4988 192.916 15.8151C193.061 16.1313 193.14 16.4728 193.148 16.8194H191.51C191.456 16.4891 191.311 16.1793 191.09 15.9233C190.983 15.8314 190.857 15.7613 190.721 15.7171C190.585 15.6729 190.442 15.6555 190.299 15.6658C190.088 15.6483 189.876 15.6905 189.689 15.7873C189.502 15.8841 189.348 16.0314 189.244 16.2117C189.008 16.6933 188.895 17.2233 188.914 17.7567C188.885 18.2728 189.015 18.7857 189.286 19.2295C189.394 19.3967 189.544 19.5337 189.722 19.6272C189.9 19.7206 190.1 19.7673 190.302 19.7625C190.445 19.7733 190.588 19.7561 190.724 19.7119C190.86 19.6677 190.985 19.5973 191.093 19.505C191.31 19.2489 191.453 18.9416 191.51 18.6141H193.148Z" fill="#0D0802"/>
<path d="M198.809 15.7611H197.165V20.8363H195.467V15.7611H193.823V14.4196H198.814L198.809 15.7611Z" fill="#0D0802"/>
<path d="M205.844 20.8363H204.14V16.8194L201.766 20.8363H199.819V14.4196H201.534V18.4365L203.908 14.4196H205.855L205.844 20.8363Z" fill="#0D0802"/>
<path d="M212.877 20.8363H211.173V18.8999H209.975C209.301 18.9201 208.637 18.7347 208.076 18.3695C207.548 18.0159 207.285 17.4717 207.285 16.737V14.4196H208.989V16.737C208.98 16.8537 209 16.9707 209.046 17.0788C209.091 17.1869 209.162 17.2832 209.253 17.3601C209.451 17.5076 209.697 17.5815 209.946 17.5687H211.165V14.4196H212.877V20.8363Z" fill="#0D0802"/>
<path d="M219.999 17.8648C220.004 17.96 220.004 18.0554 219.999 18.1506H215.594C215.582 18.54 215.666 18.9264 215.836 19.2785C215.957 19.4562 216.122 19.6003 216.317 19.6964C216.512 19.7926 216.729 19.8376 216.947 19.8269C217.225 19.8508 217.503 19.7846 217.739 19.6384C217.975 19.4922 218.154 19.2743 218.25 19.0184H219.928C219.756 19.6361 219.364 20.1737 218.822 20.535C218.255 20.9213 217.578 21.1239 216.886 21.1144C216.475 21.1342 216.063 21.0651 215.682 20.912C215.301 20.7589 214.959 20.5255 214.681 20.2286C214.153 19.6381 213.89 18.8278 213.89 17.7979C213.89 16.7216 214.161 15.8718 214.705 15.2487C214.98 14.9391 215.324 14.6944 215.71 14.5329C216.096 14.3715 216.514 14.2975 216.934 14.3166C217.553 14.3022 218.163 14.4729 218.68 14.8058C219.174 15.1405 219.544 15.6219 219.735 16.1782C219.919 16.7222 220.008 17.2922 219.999 17.8648ZM218.221 17.046C218.211 16.7207 218.121 16.4027 217.957 16.119C217.842 15.9501 217.685 15.8124 217.5 15.7187C217.316 15.6251 217.11 15.5785 216.902 15.5834C216.155 15.5834 215.725 16.071 215.612 17.046H218.221Z" fill="#0D0802"/>
<path d="M226.734 18.6141C226.687 19.3114 226.366 19.9642 225.839 20.4372C225.295 20.8971 224.593 21.139 223.874 21.1144C222.898 21.1144 222.144 20.8208 221.603 20.2338C221.062 19.6467 220.791 18.8201 220.791 17.767C220.791 16.7138 221.054 15.8255 221.606 15.223C222.157 14.6204 222.925 14.3192 223.895 14.3192C224.621 14.2865 225.332 14.525 225.884 14.9861C226.144 15.222 226.353 15.5065 226.499 15.8228C226.644 16.139 226.723 16.4806 226.731 16.8271H225.101C225.047 16.4968 224.902 16.187 224.681 15.9311C224.574 15.8391 224.448 15.769 224.312 15.7248C224.176 15.6806 224.033 15.6632 223.89 15.6736C223.679 15.656 223.467 15.6982 223.28 15.795C223.093 15.8918 222.938 16.0392 222.835 16.2194C222.599 16.701 222.486 17.231 222.505 17.7644C222.476 18.2806 222.606 18.7934 222.877 19.2373C222.984 19.4044 223.135 19.5414 223.313 19.6349C223.491 19.7283 223.691 19.775 223.893 19.7703C224.035 19.7811 224.179 19.7638 224.315 19.7196C224.451 19.6754 224.576 19.6051 224.684 19.5128C224.907 19.2603 225.058 18.9548 225.122 18.627L226.734 18.6141Z" fill="#0D0802"/>
<path d="M233.832 20.8363H231.606L229.572 18.4828V20.8363H227.868V14.4196H229.572V16.6649L231.555 14.4196H233.357L230.751 17.3189L233.832 20.8363Z" fill="#0D0802"/>
<path d="M240.878 20.8363H239.174V16.8194L236.799 20.8363H234.85V14.4196H236.554V18.4365L238.928 14.4196H240.875L240.878 20.8363Z" fill="#0D0802"/>
<path d="M248 17.8648C248 17.9601 248 18.0554 248 18.1506H243.581C243.57 18.54 243.653 18.9264 243.824 19.2784C243.945 19.4578 244.113 19.6028 244.309 19.6991C244.506 19.7953 244.725 19.8394 244.945 19.8269C245.223 19.8504 245.501 19.784 245.737 19.6378C245.972 19.4917 246.152 19.2741 246.248 19.0184H247.926C247.754 19.6368 247.361 20.1747 246.818 20.535C246.252 20.9216 245.575 21.1243 244.884 21.1144C244.473 21.133 244.063 21.0627 243.682 20.9087C243.302 20.7547 242.961 20.5208 242.684 20.2234C242.157 19.6329 241.893 18.8227 241.893 17.7927C241.893 16.7164 242.165 15.8667 242.708 15.2435C242.983 14.9339 243.327 14.6892 243.713 14.5278C244.099 14.3663 244.518 14.2924 244.937 14.3114C245.557 14.2985 246.167 14.4711 246.683 14.8058C247.185 15.1373 247.563 15.6189 247.76 16.1782C247.935 16.7235 248.016 17.2935 248 17.8648ZM246.222 17.046C246.212 16.7207 246.121 16.4027 245.958 16.119C245.843 15.9502 245.685 15.8127 245.501 15.719C245.316 15.6254 245.111 15.5788 244.903 15.5834C244.155 15.5834 243.726 16.071 243.613 17.046H246.222Z" fill="#0D0802"/>
<path d="M150.327 0H148.425V33.4096H150.327V0Z" fill="#0D0802"/>
<path d="M57.7827 16.8348H54.298V6.45791H50.9875V7.94106C50.9875 11.1649 50.5681 13.4935 49.7292 14.9268C48.8904 16.3602 47.5257 17.0777 45.6353 17.0795V13.7964C45.8407 13.7992 46.0442 13.7579 46.2314 13.6754C46.419 13.5908 46.5782 13.456 46.6904 13.2866C46.8145 13.11 46.9222 12.9231 47.0122 12.7278C47.1201 12.4806 47.1954 12.2211 47.2364 11.9554C47.2945 11.6309 47.3446 11.3322 47.3868 11.0567C47.4357 10.7023 47.4648 10.3456 47.4739 9.98813C47.4897 9.55039 47.4976 9.17703 47.4976 8.87061V3.72076H57.7853L57.7827 16.8348Z" fill="#0D0802"/>
<path d="M73.4437 10.5417C73.4437 12.648 72.8458 14.3166 71.65 15.5474C70.4541 16.7782 68.8362 17.3936 66.7963 17.3936C64.7194 17.3936 63.0927 16.7739 61.9162 15.5345C60.7397 14.2951 60.1488 12.5982 60.1436 10.4439C60.1436 8.28782 60.7327 6.59095 61.9109 5.35327C63.0892 4.11559 64.7071 3.49589 66.7646 3.49417C68.8749 3.49417 70.5139 4.11387 71.6816 5.35327C72.8493 6.59266 73.4367 8.32215 73.4437 10.5417ZM69.9565 10.4928C69.9565 9.19505 69.6707 8.16508 69.0991 7.4029C68.8394 7.04424 68.4953 6.75165 68.0958 6.54971C67.6962 6.34777 67.2528 6.24237 66.8029 6.24237C66.3529 6.24237 65.9095 6.34777 65.51 6.54971C65.1104 6.75165 64.7663 7.04424 64.5066 7.4029C63.9245 8.18053 63.6335 9.19333 63.6335 10.4413C63.6335 11.6893 63.9245 12.7021 64.5066 13.4797C64.7634 13.8383 65.105 14.1311 65.5025 14.3332C65.8999 14.5354 66.3415 14.641 66.7897 14.641C67.2379 14.641 67.6794 14.5354 68.0769 14.3332C68.4744 14.1311 68.816 13.8383 69.0728 13.4797C69.6637 12.721 69.9582 11.7253 69.9565 10.4928Z" fill="#0D0802"/>
<path d="M84.6467 6.45791H79.4685V16.8349H75.9707V3.70274H84.6361L84.6467 6.45791Z" fill="#0D0802"/>
<path d="M99.5089 10.5417C99.5089 12.648 98.9118 14.3166 97.7177 15.5474C96.5237 16.7782 94.9023 17.3936 92.8535 17.3936C90.7801 17.3936 89.1543 16.7739 87.9761 15.5345C86.7978 14.2951 86.2078 12.5982 86.2061 10.4439C86.2061 8.28782 86.7961 6.59095 87.9761 5.35327C89.1561 4.11559 90.774 3.49589 92.8298 3.49417C94.9401 3.49417 96.5791 4.11387 97.7468 5.35327C98.9145 6.59266 99.5018 8.32215 99.5089 10.5417ZM96.019 10.4928C96.019 9.19505 95.7323 8.16508 95.159 7.4029C94.8993 7.04424 94.5552 6.75165 94.1556 6.54971C93.7561 6.34777 93.3127 6.24237 92.8627 6.24237C92.4128 6.24237 91.9694 6.34777 91.5698 6.54971C91.1703 6.75165 90.8262 7.04424 90.5665 7.4029C89.9861 8.18053 89.696 9.19333 89.696 10.4413C89.696 11.6893 89.9861 12.7021 90.5665 13.4797C90.8235 13.8383 91.1654 14.1311 91.5631 14.3332C91.9608 14.5353 92.4025 14.6409 92.8509 14.6409C93.2992 14.6409 93.741 14.5353 94.1386 14.3332C94.5363 14.1311 94.8782 13.8383 95.1353 13.4797C95.7244 12.721 96.019 11.7253 96.019 10.4928Z" fill="#0D0802"/>
<path d="M111.284 6.45791H107.923V16.8349H104.439V6.45791H101.078V3.71304H111.284V6.45791Z" fill="#0D0802"/>
<path d="M124.927 10.7606C124.927 10.9537 124.927 11.1494 124.903 11.3425H115.89C115.941 12.4446 116.107 13.2171 116.388 13.66C116.633 14.03 116.974 14.3303 117.376 14.5306C117.778 14.7309 118.227 14.8241 118.678 14.8007C120.008 14.8007 120.896 14.2505 121.342 13.1501H124.772C124.413 14.4085 123.61 15.5028 122.506 16.24C121.343 17.0194 119.959 17.4229 118.549 17.3936C116.641 17.3936 115.139 16.7928 114.043 15.5912C112.948 14.3895 112.4 12.733 112.4 10.6216C112.4 8.41742 112.956 6.68021 114.067 5.40991C115.178 4.13962 116.697 3.50361 118.623 3.50189C119.891 3.47502 121.138 3.82622 122.197 4.50869C123.222 5.18823 123.994 6.17263 124.4 7.31535C124.768 8.4276 124.947 9.59167 124.927 10.7606ZM121.292 9.08175C121.269 8.41633 121.082 7.76617 120.746 7.18661C120.509 6.8408 120.186 6.55928 119.807 6.36835C119.429 6.17743 119.007 6.08333 118.58 6.09484C117.054 6.09484 116.175 7.09048 115.943 9.08175H121.292Z" fill="#0D0802"/>
<path d="M139.016 16.8349H134.838L132.572 12.7536L130.279 16.8349H126.09L130.575 10.225L126.198 3.71304H130.38L132.572 7.67327L134.737 3.71304H138.918L134.532 10.225L139.016 16.8349Z" fill="#0D0802"/>
<path d="M51.6709 33.4071H49.8244C49.6856 33.2217 49.6166 32.9952 49.6292 32.7659C49.3804 33.0464 49.0742 33.2729 48.7302 33.4308C48.3863 33.5887 48.0123 33.6745 47.6323 33.6826C47.3475 33.6916 47.0639 33.6422 46.7999 33.5375C46.5359 33.4328 46.2974 33.2752 46.0997 33.0749C45.7768 32.7103 45.6113 32.2377 45.6381 31.7565C45.6381 30.639 46.2826 29.9652 47.5716 29.7352L48.2548 29.6168C48.6202 29.5685 48.9793 29.4822 49.3258 29.3593C49.4196 29.3141 49.4975 29.2427 49.5496 29.1542C49.6017 29.0658 49.6258 28.9641 49.6186 28.8623C49.6186 28.4332 49.2898 28.2186 48.632 28.2186C48.3227 28.1921 48.0126 28.2586 47.7431 28.4091C47.6456 28.4975 47.5673 28.6042 47.5129 28.7228C47.4586 28.8413 47.4292 28.9693 47.4265 29.0992H45.7831C45.8887 27.6195 46.826 26.8788 48.5951 26.877C50.3642 26.8753 51.2611 27.5328 51.2857 28.8494V32.4131C51.2876 32.5638 51.3233 32.7121 51.3903 32.8478C51.4573 32.9835 51.554 33.1032 51.6735 33.1985L51.6709 33.4071ZM49.616 30.8321V30.3841C49.3843 30.4768 49.1427 30.5442 48.8958 30.5849L48.3129 30.6931C48.0418 30.7269 47.7849 30.8309 47.569 30.9944C47.491 31.0691 47.4302 31.1592 47.3906 31.2586C47.3511 31.3581 47.3336 31.4646 47.3395 31.5711C47.3343 31.6773 47.3539 31.7833 47.3968 31.881C47.4398 31.9787 47.505 32.0656 47.5874 32.135C47.7792 32.2823 48.0192 32.3564 48.2627 32.3436C48.4486 32.3541 48.6346 32.3245 48.8074 32.2569C48.9802 32.1892 49.1356 32.0852 49.2625 31.9522C49.5178 31.6332 49.6436 31.2335 49.616 30.8296V30.8321Z" fill="#0D0802"/>
<path d="M58.8672 33.407H57.1631V29.3927L54.789 33.407H52.8423V26.9903H54.5463V31.0072L56.9204 26.9903H58.8672V33.407Z" fill="#0D0802"/>
<path d="M66.0181 31.1849C65.9718 31.8831 65.6515 32.5369 65.1239 33.0105C64.5792 33.4686 63.8771 33.7086 63.1587 33.6826C62.1827 33.6826 61.4256 33.389 60.8875 32.8019C60.3493 32.2149 60.0794 31.3909 60.0776 30.33C60.0776 29.2382 60.3414 28.3885 60.8927 27.7886C61.4441 27.1886 62.2117 26.8848 63.1824 26.8848C63.9076 26.8527 64.6183 27.0901 65.1714 27.5491C65.4309 27.7861 65.6395 28.0712 65.7848 28.3877C65.9302 28.7043 66.0095 29.0459 66.0181 29.3927H64.3879C64.3344 29.061 64.1884 28.7501 63.9659 28.4941C63.858 28.4022 63.7325 28.3321 63.5966 28.2879C63.4608 28.2437 63.3173 28.2262 63.1745 28.2366C62.9632 28.219 62.7511 28.2614 62.5639 28.3587C62.3767 28.456 62.2223 28.6041 62.1194 28.7851C61.8835 29.2666 61.7704 29.7966 61.7896 30.33C61.7603 30.8462 61.8898 31.3591 62.1616 31.8029C62.2685 31.9707 62.4184 32.1084 62.5965 32.2023C62.7746 32.2962 62.9747 32.3432 63.1771 32.3385C63.3179 32.3485 63.4593 32.3309 63.593 32.2867C63.7266 32.2425 63.8498 32.1725 63.9553 32.081C64.1811 31.8298 64.3333 31.5238 64.3958 31.1952L66.0181 31.1849Z" fill="#0D0802"/>
<path d="M73.359 30.33C73.359 31.36 73.0662 32.1762 72.4806 32.7788C72.1728 33.0846 71.802 33.3233 71.3928 33.4791C70.9836 33.6349 70.5452 33.7043 70.1065 33.6826C69.0918 33.6826 68.3004 33.3796 67.7324 32.7736C67.1644 32.1676 66.876 31.3377 66.8672 30.2837C66.8672 29.2297 67.1556 28.3997 67.7324 27.7937C68.3092 27.1877 69.1006 26.8848 70.1065 26.8848C71.137 26.8848 71.9381 27.1877 72.5096 27.7937C73.0811 28.3997 73.3643 29.2451 73.359 30.33ZM71.6549 30.3068C71.6825 29.7712 71.5347 29.2409 71.2329 28.7928C71.1063 28.6169 70.9383 28.4734 70.7429 28.3743C70.5475 28.2752 70.3306 28.2235 70.1105 28.2235C69.8903 28.2235 69.6734 28.2752 69.478 28.3743C69.2827 28.4734 69.1146 28.6169 68.988 28.7928C68.7087 29.2404 68.5609 29.7544 68.5609 30.2785C68.5609 30.8026 68.7087 31.3166 68.988 31.7642C69.1142 31.939 69.2815 32.0817 69.4759 32.1801C69.6703 32.2786 69.8862 32.33 70.1052 32.33C70.3242 32.33 70.54 32.2786 70.7345 32.1801C70.9289 32.0817 71.0962 31.939 71.2223 31.7642C71.5247 31.3371 71.6766 30.8256 71.6549 30.3068Z" fill="#0D0802"/>
<path d="M80.7641 30.294C80.7961 31.1691 80.5165 32.0281 79.9727 32.7247C79.7476 33.0269 79.4518 33.2724 79.1101 33.4408C78.7683 33.6091 78.3903 33.6956 78.0075 33.6929C77.6329 33.7062 77.2622 33.6148 76.9388 33.4297C76.6155 33.2445 76.353 32.9731 76.1821 32.6474V35.9948H74.478V26.9826H76.1821V27.9353C76.3509 27.607 76.6125 27.3329 76.936 27.1453C77.2596 26.9577 77.6314 26.8646 78.0075 26.877C78.4099 26.878 78.8062 26.9734 79.1629 27.1551C79.5158 27.3246 79.8209 27.5757 80.0519 27.8864C80.5469 28.594 80.7965 29.4378 80.7641 30.294ZM79.06 30.3197C79.0849 29.7985 78.9469 29.2821 78.6643 28.8391C78.5537 28.6673 78.4001 28.5257 78.2182 28.4276C78.0362 28.3294 77.8316 28.2779 77.6237 28.2779C77.4158 28.2779 77.2112 28.3294 77.0292 28.4276C76.8472 28.5257 76.6937 28.6673 76.5831 28.8391C76.3238 29.2836 76.1875 29.7863 76.1875 30.2978C76.1875 30.8093 76.3238 31.312 76.5831 31.7565C76.6944 31.9266 76.8479 32.0666 77.0293 32.1636C77.2107 32.2606 77.4142 32.3114 77.6211 32.3114C77.8279 32.3114 78.0314 32.2606 78.2128 32.1636C78.3942 32.0666 78.5477 31.9266 78.6591 31.7565C78.9436 31.3304 79.0838 30.8278 79.06 30.3197Z" fill="#0D0802"/>
<path d="M87.5773 31.1849C87.531 31.8837 87.2096 32.5378 86.6804 33.0105C86.1362 33.4695 85.4338 33.7097 84.7152 33.6826C83.7427 33.6826 82.9856 33.389 82.4439 32.8019C81.9023 32.2149 81.6332 31.3909 81.6368 30.33C81.6368 29.2383 81.9005 28.3885 82.4519 27.7886C83.0032 27.1886 83.7576 26.8848 84.7389 26.8848C85.465 26.8523 86.1766 27.0897 86.7305 27.5491C86.9896 27.7864 87.1978 28.0716 87.3432 28.3881C87.4885 28.7046 87.5681 29.046 87.5773 29.3928H85.9444C85.8905 29.0617 85.7456 28.7511 85.525 28.4941C85.4171 28.4022 85.2916 28.3321 85.1558 28.2879C85.0199 28.2437 84.8764 28.2263 84.7336 28.2366C84.5223 28.2193 84.3104 28.2619 84.1233 28.3591C83.9362 28.4564 83.7817 28.6043 83.6785 28.7851C83.4436 29.2668 83.3314 29.7968 83.3514 30.33C83.3225 30.8458 83.451 31.3584 83.7207 31.8029C83.828 31.9709 83.9784 32.1087 84.157 32.2026C84.3355 32.2965 84.5361 32.3434 84.7389 32.3385C84.8796 32.3478 85.0208 32.3299 85.1544 32.2857C85.2879 32.2415 85.4112 32.1719 85.5171 32.081C85.742 31.8295 85.8932 31.5235 85.955 31.1952L87.5773 31.1849Z" fill="#0D0802"/>
<path d="M57.4664 24.8171H54.2534V26.0428H57.4664V24.8171Z" fill="#0D0802"/>
<path d="M26.6188 25.9835H7.60498V7.42351H11.4062V22.2731H26.6188V25.9835Z" fill="white"/>
</g>
<defs>
<clipPath id="clip0">
<rect width="248" height="36" fill="white"/>
</clipPath>
</defs>
</svg>
