<svg width="20" height="20" viewBox="0 0 20 20" fill="none" xmlns="http://www.w3.org/2000/svg">
<path d="M4.16667 5.83331H5C5.44203 5.83331 5.86595 5.65772 6.17851 5.34516C6.49107 5.0326 6.66667 4.60867 6.66667 4.16665C6.66667 3.94563 6.75446 3.73367 6.91074 3.57739C7.06702 3.42111 7.27899 3.33331 7.5 3.33331H12.5C12.721 3.33331 12.933 3.42111 13.0893 3.57739C13.2455 3.73367 13.3333 3.94563 13.3333 4.16665C13.3333 4.60867 13.5089 5.0326 13.8215 5.34516C14.134 5.65772 14.558 5.83331 15 5.83331H15.8333C16.2754 5.83331 16.6993 6.00891 17.0118 6.32147C17.3244 6.63403 17.5 7.05795 17.5 7.49998V15C17.5 15.442 17.3244 15.8659 17.0118 16.1785C16.6993 16.491 16.2754 16.6666 15.8333 16.6666H4.16667C3.72464 16.6666 3.30072 16.491 2.98816 16.1785C2.67559 15.8659 2.5 15.442 2.5 15V7.49998C2.5 7.05795 2.67559 6.63403 2.98816 6.32147C3.30072 6.00891 3.72464 5.83331 4.16667 5.83331Z" fill="#F0C332"/>
<path d="M4.16667 5.83331H5C5.44203 5.83331 5.86595 5.65772 6.17851 5.34516C6.49107 5.0326 6.66667 4.60867 6.66667 4.16665C6.66667 3.94563 6.75446 3.73367 6.91074 3.57739C7.06702 3.42111 7.27899 3.33331 7.5 3.33331H12.5C12.721 3.33331 12.933 3.42111 13.0893 3.57739C13.2455 3.73367 13.3333 3.94563 13.3333 4.16665C13.3333 4.60867 13.5089 5.0326 13.8215 5.34516C14.134 5.65772 14.558 5.83331 15 5.83331H15.8333C16.2754 5.83331 16.6993 6.00891 17.0118 6.32147C17.3244 6.63403 17.5 7.05795 17.5 7.49998V15C17.5 15.442 17.3244 15.8659 17.0118 16.1785C16.6993 16.4911 16.2754 16.6666 15.8333 16.6666H4.16667C3.72464 16.6666 3.30072 16.4911 2.98816 16.1785C2.67559 15.8659 2.5 15.442 2.5 15V7.49998C2.5 7.05795 2.67559 6.63403 2.98816 6.32147C3.30072 6.00891 3.72464 5.83331 4.16667 5.83331" stroke="#F0C332" stroke-width="1.5" stroke-linecap="round" stroke-linejoin="round"/>
<path d="M10 13.3333C11.3807 13.3333 12.5 12.214 12.5 10.8333C12.5 9.4526 11.3807 8.33331 10 8.33331C8.61929 8.33331 7.5 9.4526 7.5 10.8333C7.5 12.214 8.61929 13.3333 10 13.3333Z" fill="white"/>
</svg>
