<svg width="56" height="56" viewBox="0 0 56 56" fill="none" xmlns="http://www.w3.org/2000/svg">
<path d="M25.6667 46.6667C23.8101 46.6667 22.0297 45.9292 20.7169 44.6164C19.4042 43.3037 18.6667 41.5232 18.6667 39.6667V14L30.3333 25.6667" stroke="#1B1512" stroke-width="3" stroke-linecap="round" stroke-linejoin="round"/>
<path d="M30.3333 9.33334C32.1898 9.33334 33.9703 10.0708 35.2831 11.3836C36.5958 12.6964 37.3333 14.4768 37.3333 16.3333V42L25.6667 30.3333" stroke="#1B1512" stroke-width="3" stroke-linecap="round" stroke-linejoin="round"/>
<path d="M39.6667 9.33334H16.3333C12.4673 9.33334 9.33334 12.4674 9.33334 16.3333V39.6667C9.33334 43.5327 12.4673 46.6667 16.3333 46.6667H39.6667C43.5327 46.6667 46.6667 43.5327 46.6667 39.6667V16.3333C46.6667 12.4674 43.5327 9.33334 39.6667 9.33334Z" stroke="#1B1512" stroke-width="3" stroke-linecap="round" stroke-linejoin="round"/>
</svg>
