<svg width="56" height="56" viewBox="0 0 56 56" fill="none" xmlns="http://www.w3.org/2000/svg">
<path d="M21 9.33331H11.6667C10.378 9.33331 9.33334 10.378 9.33334 11.6666V21C9.33334 22.2886 10.378 23.3333 11.6667 23.3333H21C22.2887 23.3333 23.3333 22.2886 23.3333 21V11.6666C23.3333 10.378 22.2887 9.33331 21 9.33331Z" stroke="#1B1512" stroke-width="3" stroke-linecap="round" stroke-linejoin="round"/>
<path d="M16.3333 39.6667V39.6905" stroke="#1B1512" stroke-width="3" stroke-linecap="round" stroke-linejoin="round"/>
<path d="M44.3333 9.33331H35C33.7113 9.33331 32.6667 10.378 32.6667 11.6666V21C32.6667 22.2886 33.7113 23.3333 35 23.3333H44.3333C45.622 23.3333 46.6667 22.2886 46.6667 21V11.6666C46.6667 10.378 45.622 9.33331 44.3333 9.33331Z" stroke="#1B1512" stroke-width="3" stroke-linecap="round" stroke-linejoin="round"/>
<path d="M16.3333 16.3333V16.3571" stroke="#1B1512" stroke-width="3" stroke-linecap="round" stroke-linejoin="round"/>
<path d="M21 32.6667H11.6667C10.378 32.6667 9.33334 33.7114 9.33334 35V44.3334C9.33334 45.622 10.378 46.6667 11.6667 46.6667H21C22.2887 46.6667 23.3333 45.622 23.3333 44.3334V35C23.3333 33.7114 22.2887 32.6667 21 32.6667Z" stroke="#1B1512" stroke-width="3" stroke-linecap="round" stroke-linejoin="round"/>
<path d="M39.6667 16.3333V16.3571" stroke="#1B1512" stroke-width="3" stroke-linecap="round" stroke-linejoin="round"/>
<path d="M32.6667 32.6667H39.6667" stroke="#1B1512" stroke-width="3" stroke-linecap="round" stroke-linejoin="round"/>
<path d="M46.6667 32.6667V32.6905" stroke="#1B1512" stroke-width="3" stroke-linecap="round" stroke-linejoin="round"/>
<path d="M32.6667 32.6667V39.6667" stroke="#1B1512" stroke-width="3" stroke-linecap="round" stroke-linejoin="round"/>
<path d="M32.6667 46.6667H39.6667" stroke="#1B1512" stroke-width="3" stroke-linecap="round" stroke-linejoin="round"/>
<path d="M39.6667 39.6667H46.6667" stroke="#1B1512" stroke-width="3" stroke-linecap="round" stroke-linejoin="round"/>
<path d="M46.6667 39.6667V46.6667" stroke="#1B1512" stroke-width="3" stroke-linecap="round" stroke-linejoin="round"/>
</svg>
